# xmcd
#
# Track frame offsets:
#	150
#	15708
#	31928
#	48392
#	74825
#	91000
#	108034
#	126833
#	145972
#	163652
#	181325
#	200854
#	219403
#	239425
#
# Disc length: 3356 seconds
# Revision: 0
# Processed by: cddbd v1.5.2PL0 Copyright (c) Steve Scherf et al.
# Submitted via: dBpowerAMP V12.0
#
DISCID=c80d1a0e
DTITLE=Catfish Keith - Honey Hole
DYEAR=2013
DGENRE=Blues Acoustic
TTITLE0=Sweet Honey Hole
TTITLE1=Best Jelly in the Neighborhood
TTITLE2=Jailbird Love Song
TTITLE3=Weed Smoker's Dream-Why Don't You Do Right
TTITLE4=Tomi Tomi
TTITLE5=Take Me Back
TTITLE6=Who's Been Here
TTITLE7=She Got Washed Away
TTITLE8=Someday Baby
TTITLE9=Rowdy Blues
TTITLE10=God Don't Like It
TTITLE11=Frisco Town
TTITLE12=Lotus Blossom
TTITLE13=Poor Howard - Green Corn
EXTD=
EXTT0=
EXTT1=
EXTT2=
EXTT3=
EXTT4=
EXTT5=
EXTT6=
EXTT7=
EXTT8=
EXTT9=
EXTT10=
EXTT11=
EXTT12=
EXTT13=
PLAYORDER=
